<svg width="202" height="60" viewBox="0 0 202 60" fill="none" xmlns="http://www.w3.org/2000/svg">
<path d="M40.1747 16.8182V43H35.3935L24.0028 26.5213H23.8111V43H18.2756V16.8182H23.1335L34.4347 33.2841H34.6648V16.8182H40.1747ZM68.8079 29.9091C68.8079 32.7642 68.2667 35.1932 67.1843 37.196C66.1104 39.1989 64.6445 40.7287 62.7866 41.7855C60.9371 42.8338 58.8576 43.358 56.5479 43.358C54.2212 43.358 52.1332 42.8295 50.2837 41.7727C48.4343 40.7159 46.9727 39.1861 45.8988 37.1832C44.8249 35.1804 44.288 32.7557 44.288 29.9091C44.288 27.054 44.8249 24.625 45.8988 22.6222C46.9727 20.6193 48.4343 19.0937 50.2837 18.0455C52.1332 16.9886 54.2212 16.4602 56.5479 16.4602C58.8576 16.4602 60.9371 16.9886 62.7866 18.0455C64.6445 19.0937 66.1104 20.6193 67.1843 22.6222C68.2667 24.625 68.8079 27.054 68.8079 29.9091ZM63.1957 29.9091C63.1957 28.0597 62.9187 26.5 62.3647 25.2301C61.8192 23.9602 61.0479 22.9972 60.0508 22.3409C59.0536 21.6847 57.886 21.3565 56.5479 21.3565C55.2099 21.3565 54.0423 21.6847 53.0451 22.3409C52.0479 22.9972 51.2724 23.9602 50.7184 25.2301C50.1729 26.5 49.9002 28.0597 49.9002 29.9091C49.9002 31.7585 50.1729 33.3182 50.7184 34.5881C51.2724 35.858 52.0479 36.821 53.0451 37.4773C54.0423 38.1335 55.2099 38.4616 56.5479 38.4616C57.886 38.4616 59.0536 38.1335 60.0508 37.4773C61.0479 36.821 61.8192 35.858 62.3647 34.5881C62.9187 33.3182 63.1957 31.7585 63.1957 29.9091ZM70.7159 21.3821V16.8182H92.2188V21.3821H84.2031V43H78.7315V21.3821H70.7159ZM95.7599 43V16.8182H113.402V21.3821H101.295V27.6207H112.494V32.1847H101.295V38.4361H113.453V43H95.7599ZM127.084 43H117.803V16.8182H127.161C129.794 16.8182 132.061 17.3423 133.962 18.3906C135.863 19.4304 137.324 20.9261 138.347 22.8778C139.378 24.8295 139.894 27.1648 139.894 29.8835C139.894 32.6108 139.378 34.9545 138.347 36.9148C137.324 38.875 135.854 40.3793 133.936 41.4276C132.027 42.4759 129.743 43 127.084 43ZM123.338 38.2571H126.854C128.49 38.2571 129.867 37.9673 130.983 37.3878C132.108 36.7997 132.952 35.892 133.515 34.6648C134.086 33.429 134.371 31.8352 134.371 29.8835C134.371 27.9489 134.086 26.3679 133.515 25.1406C132.952 23.9134 132.113 23.0099 130.996 22.4304C129.88 21.8509 128.503 21.5611 126.867 21.5611H123.338V38.2571Z" fill="#098B2D"/>
<path d="M181.997 17.9998V20.6665C181.997 23.1419 181.014 25.5158 179.264 27.2662C177.513 29.0165 175.139 29.9998 172.664 29.9998H171.331V31.3332H177.997V40.6665C177.997 41.3738 177.716 42.052 177.216 42.5521C176.716 43.0522 176.038 43.3332 175.331 43.3332H164.664C163.957 43.3332 163.278 43.0522 162.778 42.5521C162.278 42.052 161.997 41.3738 161.997 40.6665V31.3332H168.664V27.3332C168.664 24.8578 169.647 22.4839 171.398 20.7335C173.148 18.9832 175.522 17.9998 177.997 17.9998H181.997ZM161.331 16.6665C162.931 16.6652 164.507 17.0484 165.928 17.7837C167.349 18.519 168.573 19.585 169.496 20.8918C168.088 22.7436 167.327 25.0068 167.331 27.3332V28.6665H166.664C164.012 28.6665 161.468 27.6129 159.593 25.7376C157.718 23.8622 156.664 21.3187 156.664 18.6665V16.6665H161.331Z" fill="#098B2D"/>
</svg>
